#!OML:ASF I:\Actors\actors\Patient Classification 2\Patient 1\Session 1\actor1.ASF
:FULLY-SPECIFIED
:DEGREES
82
root -0.691522 18.6363 6.54479 0.962265 -0.966575 -3.14108
lowerback 10.6447 1.01926 1.92529
upperback -1.45788 1.62005 0.0668283
thorax -7.47358 0.710147 -1.28794
lowerneck -8.20441 -2.04593 0.0311546
upperneck 19.2257 -3.2802 2.33883
head 7.27916 -1.36289 0.470309
rclavicle 5.44173e-015 1.19271e-015
rhumerus -49.2049 4.10802 -91.143
rradius 49.4436
rwrist 2.34469
rhand -1.14505 -37.1218
rfingers 7.12502
rthumb 24.4932 -65.5756
lclavicle 5.44173e-015 1.19271e-015
lhumerus -36.2443 -3.64227 90.1356
lradius 39.5684
lwrist -3.82702
lhand 3.6505 -14.4822
lfingers 7.12502
lthumb 29.082 13.2674
rfemur 10.046 2.25361 18.2767
rtibia 7.95139e-015
rfoot -22.7446 -13.3994
rtoes -0.356499
lfemur -4.25017 -1.99171 -11.9593
ltibia 24.5491
lfoot -24.1697 11.5392
ltoes -54.9319
83
root -0.683489 18.6535 6.52078 1.03454 -1.09097 -3.20659
lowerback 11.1897 1.06227 2.09177
upperback -1.32812 1.70834 0.0359243
thorax -7.63794 0.743412 -1.44127
lowerneck -7.95505 -2.02631 -0.00925616
upperneck 18.7494 -3.22657 2.32515
head 7.0795 -1.34935 0.481466
rclavicle 2.98177e-015 -6.36111e-015
rhumerus -47.7976 6.42163 -91.6364
rradius 49.8627
rwrist 2.65604
rhand 0.587917 -37.2756
rfingers 7.12502
rthumb 26.1534 -65.4942
lclavicle 2.98177e-015 -6.36111e-015
lhumerus -34.7687 -5.53644 90.3873
lradius 39.6987
lwrist -4.80372
lhand 5.47334 -13.0235
lfingers 7.12502
lthumb 30.8213 14.4119
rfemur 9.84052 2.38034 18.3038
rtibia 3.18055e-015
rfoot -22.4612 -13.672
rtoes -0.347163
lfemur -4.42037 -1.60062 -11.8329
ltibia 24.5919
lfoot -23.8385 11.2405
ltoes -54.6361
84
root -0.677037 18.6719 6.48517 1.0247 -1.23421 -3.25495
lowerback 11.6962 1.08863 2.04077
upperback -0.927682 1.7472 0.107123
thorax -7.50013 0.770368 -1.35104
lowerneck -7.84463 -1.96702 -0.078504
upperneck 17.9789 -3.10082 2.27338
head 6.80965 -1.30828 0.490356
rclavicle -2.48481e-014 -2.78299e-015
rhumerus -45.8399 9.04361 -91.9006
rradius 50.2836
rwrist 2.94268
rhand 1.7119 -37.4753
rfingers 7.12502
rthumb 27.229 -65.53
lclavicle -2.48481e-014 -2.78299e-015
lhumerus -32.8608 -7.27303 90.6081
lradius 39.8017
lwrist -5.50374
lhand 6.55276 -12.0934
lfingers 7.12502
lthumb 31.8499 15.1426
rfemur 9.67103 2.52826 18.3227
rtibia 1.74931e-014
rfoot -22.0793 -13.9872
rtoes -0.320502
lfemur -4.56442 -1.06503 -11.6804
ltibia 24.6649
lfoot -23.4572 10.6865
ltoes -53.9981
85
root -0.672815 18.6932 6.43224 1.05639 -1.22707 -3.26749
lowerback 12.253 1.01311 1.7995
upperback -0.446398 1.62623 0.234028
thorax -7.31587 0.728517 -1.06594
lowerneck -7.59792 -1.84899 -0.044902
upperneck 16.9191 -2.8867 2.12587
head 6.42166 -1.22911 0.460645
rclavicle 8.15017e-015 -1.98785e-016
rhumerus -43.6142 11.8928 -91.9872
rradius 50.7373
rwrist 3.22958
rhand 1.90209 -37.1339
rfingers 7.12502
rthumb 27.411 -65.1599
lclavicle 8.15017e-015 -1.98785e-016
lhumerus -30.8755 -8.95623 90.6768
lradius 40.0767
lwrist -5.71604
lhand 6.74071 -12.2863
lfingers 7.12502
lthumb 32.0288 14.9138
rfemur 9.41753 2.52464 18.3034
rtibia -7.95139e-015
rfoot -21.5124 -14.31
rtoes -0.249343
lfemur -4.87927 -0.459666 -11.5241
ltibia 24.7824
lfoot -22.8426 10.0151
ltoes -53.531
86
root -0.666482 18.7146 6.3729 1.05053 -1.29094 -3.25456
lowerback 13.0613 0.94669 1.57135
upperback -0.0187315 1.51986 0.315894
thorax -7.32664 0.688133 -0.843533
lowerneck -7.19881 -1.71521 0.0427611
upperneck 15.8043 -2.65626 1.95299
head 5.99292 -1.14056 0.416259
rclavicle 6.33626e-015 5.96354e-016
rhumerus -41.4295 14.6472 -91.9511
rradius 51.1869
rwrist 3.53011
rhand 1.19529 -36.5486
rfingers 7.12502
rthumb 26.7347 -64.6798
lclavicle 6.33626e-015 5.96354e-016
lhumerus -29.1316 -10.6295 90.6148
lradius 40.5107
lwrist -5.14058
lhand 5.8459 -13.3631
lfingers 7.12502
lthumb 31.1765 14.0046
rfemur 9.18071 2.59395 18.2302
rtibia -9.54166e-015
rfoot -20.8772 -14.5738
rtoes -0.118558
lfemur -5.18701 0.126443 -11.4254
ltibia 24.9554
lfoot -22.0644 9.52179
ltoes -53.5052
87
root -0.660059 18.7323 6.31133 0.939053 -1.46464 -3.27295
lowerback 14.1292 0.971919 1.48701
upperback 0.441182 1.55608 0.357034
thorax -7.43732 0.709329 -0.776728
lowerneck -6.89674 -1.64887 0.038335
upperneck 14.7353 -2.52254 1.85348
head 5.60285 -1.09573 0.401533
rclavicle -1.69464e-014 5.96354e-016
rhumerus -39.1447 16.99 -91.6244
rradius 51.5836
rwrist 3.95683
rhand -0.091458 -35.9776
rfingers 7.12502
rthumb 25.5028 -64.2909
lclavicle -1.69464e-014 5.96354e-016
lhumerus -27.4352 -12.4324 90.5861
lradius 40.994
lwrist -3.90479
lhand 3.88134 -14.752
lfingers 7.12502
lthumb 29.3024 12.9594
rfemur 9.03861 2.77699 18.1872
rtibia 9.54166e-015
rfoot -20.3228 -14.8009
rtoes -0.236349
lfemur -5.41706 0.776239 -11.2978
ltibia 25.1846
lfoot -21.1245 9.19486
ltoes -54.3036
88
root -0.655049 18.7459 6.24346 0.846767 -1.62584 -3.32605
lowerback 15.2643 1.02933 1.54671
upperback 0.957375 1.65277 0.333418
thorax -7.51315 0.753917 -0.874342
lowerneck -6.694 -1.63547 0.0869073
upperneck 13.6352 -2.47345 1.77751
head 5.22388 -1.08608 0.378835
rclavicle 1.21259e-014 -5.36719e-015
rhumerus -36.6464 18.8937 -91.0868
rradius 51.8672
rwrist 4.62344
rhand -2.0397 -35.2762
rfingers 7.12502
rthumb 23.6353 -63.8434
lclavicle 1.21259e-014 -5.36719e-015
lhumerus -25.6151 -14.3077 90.4189
lradius 41.595
lwrist -2.8949
lhand 1.58417 -15.8615
lfingers 7.12502
lthumb 27.1068 12.2123
rfemur 8.86656 2.94745 18.1793
rtibia -1.11319e-014
rfoot -19.7711 -14.9953
rtoes -0.833691
lfemur -5.73332 1.32975 -11.1302
ltibia 25.474
lfoot -20.1847 8.95176
ltoes -55.853
89
root -0.649593 18.7564 6.17212 0.863334 -1.75155 -3.35625
lowerback 16.4024 1.04921 1.68788
upperback 1.40367 1.70782 0.206948
thorax -7.65519 0.772792 -1.12214
lowerneck -6.47998 -1.60756 0.256933
upperneck 12.6458 -2.42287 1.70297
head 4.87849 -1.06849 0.336729
rclavicle -3.47873e-015 2.78299e-015
rhumerus -34.1684 20.5747 -90.5861
rradius 52.0505
rwrist 5.33387
rhand -4.71257 -34.5374
rfingers 7.12502
rthumb 21.0696 -63.4128
lclavicle -3.47873e-015 2.78299e-015
lhumerus -23.8748 -16.057 90.0014
lradius 42.328
lwrist -2.29792
lhand -0.830412 -16.8656
lfingers 7.12502
lthumb 24.7947 11.547
rfemur 8.57679 3.07905 18.1286
rtibia 7.95139e-015
rfoot -19.1763 -15.1715
rtoes -2.04773
lfemur -6.17904 1.68864 -10.9875
ltibia 25.812
lfoot -19.3751 8.56014
ltoes -56.1895
90
root -0.644378 18.7647 6.10022 1.04561 -1.79216 -3.37482
lowerback 17.4917 1.01643 1.8407
upperback 1.73036 1.69675 0.0604162
thorax -7.89458 0.757211 -1.38558
lowerneck -6.17878 -1.56764 0.430785
upperneck 11.7636 -2.36178 1.66037
head 4.55369 -1.04359 0.304973
rclavicle -2.80286e-014 -3.97569e-015
rhumerus -31.8124 22.2588 -90.0986
rradius 52.1942
rwrist 5.57155
rhand -8.19804 -34.0499
rfingers 7.12502
rthumb 17.7183 -63.2627
lclavicle -2.80286e-014 -3.97569e-015
lhumerus -22.3106 -17.6298 89.5109
lradius 43.0714
lwrist -1.86311
lhand -3.66237 -18.3157
lfingers 7.12502
lthumb 22.0782 10.4439
rfemur 8.116 3.11928 18.064
rtibia 2.22639e-014
rfoot -18.688 -15.3018
rtoes -2.95805
lfemur -6.83141 2.10377 -10.8417
ltibia 26.176
lfoot -18.5414 8.02843
ltoes -56.3708
91
root -0.640655 18.7719 6.02934 1.36975 -1.80153 -3.33116
lowerback 18.4908 0.982447 1.89783
upperback 1.98933 1.66363 -0.112806
thorax -8.15615 0.732929 -1.61805
lowerneck -5.77346 -1.51045 0.698241
upperneck 10.5308 -2.27771 1.59292
head 4.52998 -1.01136 0.283457
rclavicle 9.93923e-016 -1.51076e-014
rhumerus -29.6291 24.0866 -89.666
rradius 52.3657
rwrist 5.00767
rhand -12.3072 -34.1227
rfingers 7.12502
rthumb 13.7609 -63.6477
lclavicle 9.93923e-016 -1.51076e-014
lhumerus -20.8056 -19.1028 88.9646
lradius 43.6603
lwrist -1.79531
lhand -6.70197 -20.1712
lfingers 7.12502
lthumb 19.1574 8.90529
rfemur 7.50551 3.12058 17.9506
rtibia -3.18055e-015
rfoot -18.3222 -15.4321
rtoes -3.50728
lfemur -7.65221 2.5121 -10.7955
ltibia 26.5506
lfoot -17.8995 7.61641
ltoes -56.7987
92
root -0.637251 18.7773 5.96013 1.77745 -1.80168 -3.23608
lowerback 19.3925 0.952397 1.8686
upperback 2.24485 1.61564 -0.284006
thorax -8.36757 0.705188 -1.79369
lowerneck -5.40343 -1.41116 0.916172
upperneck 9.71312 -2.14697 1.63071
head 4.15625 -0.947245 0.269144
rclavicle -4.57205e-014 6.36111e-015
rhumerus -27.5101 25.8483 -89.1399
rradius 52.5952
rwrist 4.44396
rhand -15.7271 -34.7485
rfingers 7.12502
rthumb 10.4634 -64.4681
lclavicle -4.57205e-014 6.36111e-015
lhumerus -19.1752 -20.4577 88.3788
lradius 43.9801
lwrist -2.03109
lhand -9.40607 -21.9439
lfingers 7.12502
lthumb 16.5555 7.36988
rfemur 6.80189 3.10633 17.7906
rtibia 1.59028e-015
rfoot -18.1209 -15.5117
rtoes -3.48452
lfemur -8.5528 2.7611 -10.8565
ltibia 26.9195
lfoot -17.6242 7.25039
ltoes -57.0747
93
root -0.631675 18.7797 5.89353 2.28498 -1.68312 -3.13991
lowerback 20.1776 0.883065 1.82949
upperback 2.50006 1.51758 -0.381252
thorax -8.51718 0.656327 -1.86713
lowerneck -5.31081 -1.31754 0.966416
upperneck 9.09841 -2.01344 1.64855
head 3.91733 -0.885885 0.274811
rclavicle -1.26228e-014 6.36111e-015
rhumerus -25.1096 27.1045 -88.2812
rradius 52.6433
rwrist 4.99199
rhand -17.7492 -35.5362
rfingers 7.12502
rthumb 8.51238 -65.3446
lclavicle -1.26228e-014 6.36111e-015
lhumerus -17.3866 -21.5806 87.8449
lradius 44.0987
lwrist -2.51264
lhand -11.504 -23.4803
lfingers 7.12502
lthumb 14.5349 5.99052
rfemur 6.01259 2.96696 17.6312
rtibia 1.27222e-014
rfoot -18.1477 -15.4855
rtoes -2.47058
lfemur -9.57803 2.85963 -10.9647
ltibia 27.2636
lfoot -17.5264 6.91294
ltoes -57.2364
94
root -0.625516 18.782 5.83133 2.95376 -1.48758 -3.03943
lowerback 20.7852 0.813692 1.76903
upperback 2.70231 1.41502 -0.443752
thorax -8.62791 0.607271 -1.88464
lowerneck -5.39036 -1.24698 1.0387
upperneck 8.68793 -1.9093 1.55213
head 3.78512 -0.840237 0.235488
rclavicle -2.5842e-015 -1.19271e-015
rhumerus -22.5388 27.874 -87.2633
rradius 52.4308
rwrist 6.24714
rhand -19.1005 -36.0818
rfingers 7.12502
rthumb 7.20815 -65.939
lclavicle -2.5842e-015 -1.19271e-015
lhumerus -15.5121 -22.4166 87.3311
lradius 44.0531
lwrist -3.57528
lhand -12.8694 -24.7091
lfingers 7.12502
lthumb 13.2191 4.85175
rfemur 5.0836 2.74073 17.4856
rtibia 1.59028e-015
rfoot -18.1162 -15.5885
rtoes -2.49506
lfemur -10.7637 2.89197 -11.1272
ltibia 27.5628
lfoot -17.4517 6.79392
ltoes -57.3903
95
root -0.620134 18.7852 5.77105 3.80111 -1.34001 -3.01207
lowerback 21.2004 0.791536 1.70151
upperback 2.82942 1.37394 -0.461345
thorax -8.71475 0.588609 -1.86184
lowerneck -5.40281 -1.16788 1.12953
upperneck 8.25948 -1.79684 1.48083
head 3.63458 -0.789277 0.202189
rclavicle -9.54166e-015 -2.38542e-015
rhumerus -20.0621 28.4237 -86.2556
rradius 52.0686
rwrist 7.44354
rhand -20.2637 -36.3119
rfingers 7.12502
rthumb 6.08526 -66.2045
lclavicle -9.54166e-015 -2.38542e-015
lhumerus -13.6071 -22.8771 86.849
lradius 43.822
lwrist -5.15675
lhand -13.3634 -25.6671
lfingers 7.12502
lthumb 12.7428 3.92402
rfemur 3.96095 2.55647 17.4241
rtibia 9.54166e-015
rfoot -17.9915 -15.7889
rtoes -3.47608
lfemur -12.0971 2.93658 -11.2506
ltibia 27.8026
lfoot -17.4137 6.91953
ltoes -57.4757
